<?xml version="1.0" encoding="utf-8"?>
<!-- Generator: Adobe Illustrator 22.0.1, SVG Export Plug-In . SVG Version: 6.00 Build 0)  -->
<svg version="1.1"
	 id="svg10" inkscape:version="1.0 (4035a4fb49, 2020-05-01)" sodipodi:docname="logo_background.svg" xmlns:cc="http://creativecommons.org/ns#" xmlns:dc="http://purl.org/dc/elements/1.1/" xmlns:inkscape="http://www.inkscape.org/namespaces/inkscape" xmlns:rdf="http://www.w3.org/1999/02/22-rdf-syntax-ns#" xmlns:sodipodi="http://sodipodi.sourceforge.net/DTD/sodipodi-0.dtd" xmlns:svg="http://www.w3.org/2000/svg"
	 xmlns="http://www.w3.org/2000/svg" xmlns:xlink="http://www.w3.org/1999/xlink" x="0px" y="0px" viewBox="0 0 540 96"
	 style="enable-background:new 0 0 540 96;" xml:space="preserve">
<style type="text/css">
	.st0{fill:#D9222A;}
	.st1{fill:#FFFFFF;}
</style>
<sodipodi:namedview  bordercolor="#666666" borderopacity="1" gridtolerance="10" guidetolerance="10" id="namedview12" inkscape:current-layer="g18" inkscape:cx="304" inkscape:cy="48" inkscape:pageopacity="0" inkscape:pageshadow="2" inkscape:window-height="2066" inkscape:window-maximized="1" inkscape:window-width="3840" inkscape:window-x="-11" inkscape:window-y="-11" inkscape:zoom="5.9884868" objecttolerance="10" pagecolor="#ffffff" showgrid="false">
	</sodipodi:namedview>
<path class="st0" d="M492,96H48C21.6,96,0,74.4,0,48v0C0,21.6,21.6,0,48,0l444,0c26.4,0,48,21.6,48,48v0C540,74.4,518.4,96,492,96z"
	/>
<g id="Page-1">
	<g id="Artboard">
		<g id="Media_Markt-1-Copy" transform="translate(20.000000, 93.000000)">
			<path id="Fill-2" class="st1" d="M396.5-50l0.1-0.8c0.1-0.3,0-0.6-0.2-0.9c-0.2-0.2-0.5-0.4-0.8-0.4H390c-0.5,0-1,0.4-1.1,0.9
				l-0.2,0.8l-5.9,32.4c-0.1,0.3,0,0.6,0.3,0.9c0.2,0.2,0.5,0.4,0.8,0.4l2.7,0h2.6c0.5,0,0.9-0.4,1-0.9l4.1-20.1
				c1.3-5.1,4.7-6.6,7.7-7.1c0.2,0,0.8,0,0.9-0.1c-2,12.2-4.5,26.7-4.5,26.9c-0.1,0.3,0,0.6,0.2,0.9c0.2,0.2,0.5,0.4,0.8,0.4h6
				c0.5,0,0.9-0.3,1-0.8c0.2-0.6,1.6-8.9,2.5-13.9c2.2,3.4,9.3,14.1,9.3,14.1c0.2,0.3,0.5,0.5,0.9,0.5l7.2,0c0.1,0,0.2,0,0.4-0.1
				c0.2,0.1,0.3,0.1,0.5,0.1l6,0c0.5,0,1-0.4,1-0.9c0,0,4.4-25.3,4.7-26.9c1.4,0,6.9,0,6.9,0c0.5,0,1-0.4,1.1-0.9l0.9-5.4
				c0-0.1,0-0.1,0-0.2c0-0.2-0.1-0.5-0.2-0.7c-0.2-0.2-0.5-0.4-0.8-0.4H440c0.3-1.9,1.5-9,1.5-9c0-0.1,0-0.1,0-0.2
				c0-0.3-0.1-0.5-0.3-0.7c-0.2-0.2-0.5-0.4-0.8-0.4h-6c-0.5,0-1,0.4-1.1,0.9c0,0-1.3,7.9-1.6,9.4c-0.5,0-1.1,0-1.1,0l-0.9,0l-1,0
				c-0.4,0-0.7,0.2-0.9,0.5c-0.2-0.3-0.5-0.5-0.9-0.5l-5.5,0h-1.6c-0.3,0-0.6,0.1-0.8,0.3c0,0-5.5,6.3-8.5,9.5
				c0.9-5,3.2-18.9,3.2-18.9c0-0.1,0-0.1,0-0.2c0-0.2-0.1-0.5-0.3-0.7c-0.2-0.2-0.5-0.4-0.8-0.4l-6,0c-0.5,0-1,0.4-1.1,0.9
				c-0.1,0.8-0.8,4.5-1.6,9.4c0,0,0,0,0,0c-0.2-0.2-0.5-0.4-0.8-0.4C400.8-52.3,398.5-51.3,396.5-50z M426.5-19.6
				c-2.5-4-9.7-15.5-10.3-16.5c0.8-1,9.6-11.6,11.4-13.7l-0.8,4.1c-0.1,0.3,0,0.6,0.2,0.9c0.2,0.2,0.5,0.4,0.8,0.4h2.7
				C430.2-42.6,427.4-25.2,426.5-19.6z M221.2-33.4c-1.2,4.4-5.4,8.5-9.4,9.5c-3.1,0.4-5.3,0.1-6.9-0.9c-1.7-1.1-2.5-3.1-3.1-4.9
				c-0.1-0.6-0.2-1.3-0.2-1.9c0-4,2.1-7.8,6-10.7c2.2-1.6,5.3-2.2,8-1.6c1.5,0.3,3.6,1.2,4.9,3.6c0.7,1.3,1.1,2.9,1.1,4.4
				C221.6-35.1,221.5-34.2,221.2-33.4z M190.8-61.4l-1.3,7c-0.1,0.3,0,0.6,0.2,0.9c0.2,0.2,0.5,0.4,0.8,0.4h6.2c0.5,0,1-0.4,1.1-0.9
				l1.2-7c0.1-0.3,0-0.6-0.2-0.9c-0.2-0.2-0.5-0.4-0.8-0.4l-6.1-0.1C191.3-62.3,190.9-61.9,190.8-61.4z M177.3-33.4L177.3-33.4
				c0.2-0.8,0.3-1.6,0.3-2.5c0-1.6-0.4-3.2-1.1-4.4c-1.3-2.3-3.4-3.2-4.9-3.6c-2.7-0.6-5.7,0-8,1.6c-3.9,2.9-6,6.8-6,10.7
				c0,0.6,0.1,1.3,0.2,1.9c0.6,1.8,1.5,3.8,3.1,4.9c1.6,1,3.8,1.3,6.9,0.9C171.9-24.9,176.1-29.1,177.3-33.4z M126.1-38.4
				L126.1-38.4c2.6,0,14.8-0.1,16.6-0.2c-0.1-1.2-0.8-2.3-2.1-3.6c-1.4-1.2-3.4-1.8-6.2-1.8C131.3-43.6,127.8-41.6,126.1-38.4z
				 M377-33.4c-1.2,4.4-5.4,8.5-9.4,9.5c-3.1,0.4-5.3,0.1-6.9-0.9c-1.7-1.1-2.5-3.1-3.1-4.9c-0.1-0.6-0.2-1.3-0.2-1.9
				c0-4,2.1-7.8,6-10.7c2.2-1.6,5.3-2.2,8-1.6c1.5,0.3,3.6,1.2,4.9,3.6c0.7,1.3,1.1,2.9,1.1,4.4C377.4-35.1,377.2-34.2,377-33.4z
				 M41.1-17.2v-0.7c0-0.1,0.1-0.1,0.1-0.2l44.5-51.3c0.2-0.2,0.4-0.3,0.6-0.3h7.2c0.2,0,0.5,0.1,0.6,0.3c0.1,0.1,0.2,0.3,0.2,0.5
				c0,0.1,0,0.1,0,0.2c0,0-5.6,27.5-6.6,32.5c3.5-4,29.4-33.2,29.4-33.2c0.1-0.2,0.4-0.3,0.6-0.3h6.8c0.2,0,0.5,0.1,0.6,0.3
				c0.2,0.2,0.2,0.5,0.1,0.7l-7.1,28.8c0.1-0.1,0.1-0.2,0.2-0.3c3.4-6.6,9.8-11.2,16.7-12c0,0,0,0,0.1,0c6.3-0.3,11.1,2.1,14,6.9
				c0,0,0,0,0,0.1c1,2.1,1.8,4.9,2,7.8c1.2-3.5,3.3-6.7,6.2-9.4c5-4.6,11-6.4,17-5.1c0.1,0,0.1,0,0.2,0.1l0.6,0.2
				c1.3,0.6,2.8,1.2,4,2.3c0.7-3.1,2.6-12.2,2.6-12.2c0.1-0.5,0.5-0.8,1.1-0.8h5.5c0.3,0,0.6,0.1,0.8,0.4c0.2,0.2,0.3,0.6,0.2,0.9
				l-8.1,43.6c-0.1,0.5-0.5,0.9-1.1,0.9l-5.5,0c-0.3,0-0.6-0.1-0.8-0.4c-0.2-0.2-0.2-0.4-0.2-0.7c0-0.1,0-0.1,0-0.2
				c0,0,0.1-0.7,0.2-1.2c-4.5,2.8-9,3.8-13.3,3.1c-4.9-1-9.4-5.7-10.3-10.8c-0.3-1.4-0.4-2.7-0.3-4.1c-0.2,0.2-0.4,0.3-0.7,0.3
				c0,0-24.3,0-25.5,0c0,0.1,0,0.2,0,0.3c0,0.4,0.1,0.9,0.3,1.5c0,0,0.1,0.3,0.1,0.4c1.2,3,4.1,4.8,7.4,4.8c3.3-0.1,6.3-1.6,9-4.7
				c0.2-0.2,0.5-0.4,0.8-0.4h5.7c0.4,0,0.7,0.2,0.9,0.5c0.2,0.3,0.2,0.7,0.1,1c-3.2,6.8-10.5,11.4-18.1,11.4
				c-5.3-0.2-9.7-2.8-12.2-7.1c-1.2-2.3-1.8-5.1-1.8-8.1l-3.3,13.6c-0.1,0.4-0.4,0.6-0.8,0.6h-7.2c-0.2,0-0.5-0.1-0.6-0.3
				c-0.1-0.1-0.2-0.3-0.2-0.5c0-0.1,0-0.1,0-0.2c2.8-11.7,6.8-28.4,8.2-35c-3.4,4-30.5,35.6-30.5,35.6c-0.1,0.2-0.4,0.3-0.6,0.3
				l-6.1,0.1c-0.2,0-0.5-0.1-0.6-0.3c-0.1-0.1-0.2-0.3-0.2-0.5c0-0.1,0-0.1,0-0.2c2.6-11.9,6.2-28.7,7.4-35.3
				c-3.3,4-30.1,36-30.1,36c-0.2,0.2-0.4,0.3-0.6,0.3c-2.1-0.1-3.6-0.1-5.5-0.1h-3.5C41.5-16.8,41.2-16.9,41.1-17.2z M386.9-51.7
				c-0.2-0.2-0.5-0.4-0.8-0.4h-5.6c-0.5,0-0.9,0.4-1,0.8l-0.4,2.1c-1.2-1.1-2.5-1.8-4.2-2.5l-0.6-0.2c-0.1,0-0.1-0.1-0.2-0.1
				c-6-1.3-12.1,0.5-17,5.1c-2.5,2.3-4.4,4.9-5.6,7.8l7.3-29.6c0.1-0.2,0-0.5-0.1-0.7c-0.2-0.2-0.4-0.3-0.6-0.3h-6.8
				c-0.2,0-0.4,0.1-0.6,0.3c0,0-25.9,29.2-29.4,33.2c1-5,6.8-32.5,6.8-32.5c0-0.1,0-0.1,0-0.2c0-0.2-0.1-0.4-0.2-0.5
				c-0.2-0.2-0.4-0.3-0.6-0.3h-7.5c-0.2,0-0.5,0.1-0.6,0.3l-37.3,43.1c-0.6-6.3-3.6-13.1-3.6-13.1c-5-10.2-16.1-13.6-22.4-7.7l0,0
				l-1,0.7c4.6-7.3,16.2-7,23.7,1.6c0,0,3.3,4,5.7,9.9c0.6-2.1,1-4.3,1.1-6.5c-3.9-5.3-8.3-8.4-8.3-8.4c-9.4-6.4-20.7-3.7-23.3,4.6
				l0,0l-0.5,1.1c0.3-8.6,10.5-14.1,21.3-10.4c0,0,5.1,1.9,10.2,6c-0.1-0.3-0.1-0.7-0.2-1c-0.6-2.2-1.4-4.2-2.4-6.2
				c-6-2.6-11.3-3.1-11.3-3.1c-11.4-0.8-19.8,7.2-17.9,15.6l0,0l0.1,1.2c-4-7.6,2-17.5,13.2-19.7c0,0,5.2-0.9,11.6,0.1
				c-1.6-1.7-3.5-3.2-5.5-4.5c-6.4,0.8-11.2,3-11.2,3c-10.2,5-13.6,16.1-7.7,22.4l0,0l0.7,1c-7.3-4.6-7-16.2,1.6-23.7
				c0,0,4-3.3,10-5.7c-2.5-0.7-5-1.1-7.6-1.1c-5,3.8-7.9,7.9-7.9,7.9c-6.4,9.4-3.7,20.7,4.6,23.3l0,0l1.1,0.5
				c-8.6-0.3-14.1-10.5-10.4-21.3c0,0,1.7-4.6,5.5-9.5c-2.2,0.6-4.2,1.4-6.1,2.4c-2.4,5.8-2.9,10.8-2.9,10.8
				c-0.8,11.4,7.2,19.8,15.6,17.9l0,0l1.2-0.1c-7.6,4-17.5-2-19.7-13.2c0,0-0.9-5,0-11.2c-1.8,1.7-3.4,3.7-4.7,5.9
				c0.8,6.1,2.9,10.6,2.9,10.6c5,10.2,16.1,13.6,22.4,7.7l0,0l1-0.7c-4.6,7.3-16.2,7-23.6-1.6c0,0-3.8-4.8-5.8-10.4
				c0-0.3-0.1-0.5-0.2-0.7c-0.2-0.2-0.5-0.4-0.8-0.4h-5.5c-0.5,0-0.9,0.4-1.1,0.8c0,0-0.4,0.6-0.6,1.9c-1.2-1.1-2.7-1.7-4-2.3
				l-0.6-0.2c-0.1,0-0.1-0.1-0.2-0.1c-6-1.3-12.1,0.5-17,5.1c-2.9,2.7-5,5.9-6.2,9.4c0,0,0,0.1-0.1,0.2l2.4-13.6
				c0.1-0.3,0-0.6-0.2-0.9c-0.2-0.2-0.5-0.4-0.8-0.4l-5.9,0c-0.5,0-1,0.4-1.1,0.9l-6.1,33.4c-0.1,0.3,0,0.6,0.2,0.9
				c0.2,0.2,0.5,0.4,0.8,0.4l6.2,0c0.5,0,1-0.4,1.1-0.9l2.4-13.6c0,0.1,0,0.1,0,0.1c0,1.3,0.1,2.7,0.3,4.1
				c0.9,5.1,5.4,9.9,10.3,10.8c4.3,0.8,8.8-0.3,13.3-3.1c-0.1,0.5-0.2,1.2-0.2,1.2c0,0.1,0,0.1,0,0.2c0,0.2,0.1,0.5,0.2,0.7
				c0.2,0.2,0.5,0.4,0.8,0.4l5.5,0c0.5,0,1-0.4,1.1-0.9l4.8-26.2c3.6,4.3,8.4,8,8.4,8c9.4,6.4,20.7,3.7,23.3-4.6l0,0l0.5-1.1
				c-0.3,8.6-10.5,14.1-21.3,10.4c0,0-4.6-1.7-9.5-5.5c0,0.2,0.1,0.4,0.1,0.5c0.6,2.3,1.4,4.4,2.5,6.4c5.7,2.3,10.6,2.8,10.6,2.8
				c11.4,0.8,19.8-7.2,17.9-15.6l0,0l-0.1-1.2c4,7.6-2,17.5-13.2,19.7c0,0-4.9,0.9-11,0c1.5,1.5,3.1,2.9,4.9,4.1c6.3-0.8,11-3,11-3
				c10.2-5,13.6-16.1,7.7-22.4l0,0l-0.7-1c7.3,4.6,7,16.2-1.6,23.7c0,0-4.1,3.4-10.2,5.8c1.7,0.6,3.4,1,5.1,1.2h2.5
				c5.1-3.8,8.1-8.1,8.1-8.1c6.4-9.4,3.7-20.7-4.6-23.3l0,0l-1.1-0.5c8.6,0.3,14.1,10.5,10.4,21.3c0,0-1.9,5-6,10.1
				c0.3-0.1,0.6-0.1,1-0.2c2.1-0.5,4-1.3,5.9-2.2c2.5-5.9,3-11.2,3-11.2c0.8-11.4-7.2-19.8-15.6-17.9l0,0l-1.2,0.1
				c7.6-4,17.5,2,19.7,13.2c0,0,1.3,5.1,0.3,11.2c-0.2,0.9-0.5,2.2-1.3,3.5c-0.2,0.4-0.5,0.8-0.8,1.3c0,0,0,0,0,0c0,0,0,0,0,0
				c0,0,0,0,0,0c-0.1,0.2-0.2,0.5,0,0.7c0.1,0.3,0.4,0.5,0.7,0.5h3.5c1.8,0,3.4,0,5.5,0.1c0.2,0,0.5-0.1,0.6-0.3
				c0,0,26.8-32,30.1-36c-1.3,6.6-4.9,23.5-7.5,35.3c0,0.1,0,0.1,0,0.2c0,0.2,0.1,0.4,0.2,0.5c0.2,0.2,0.4,0.3,0.6,0.3l6.1-0.1
				c0.2,0,0.5-0.1,0.6-0.3c0,0,27-31.6,30.5-35.6c-1.4,6.6-5.4,23.3-8.2,35c0,0.1,0,0.1,0,0.2c0,0.2,0.1,0.3,0.2,0.5
				c0.2,0.2,0.4,0.3,0.6,0.3h7.2c0.4,0,0.7-0.3,0.8-0.6l3.1-12.7l0.4-1.8c0,0.5,0,0.9,0,0.9c0,1.3,0.1,2.7,0.3,4.1
				c0.9,5.1,5.4,9.9,10.3,10.8c4.3,0.8,8.8-0.3,13.3-3.1c-0.1,0.5-0.2,1.2-0.2,1.2c0,0.1,0,0.1,0,0.2c0,0.2,0.1,0.5,0.2,0.7
				c0.2,0.2,0.5,0.4,0.8,0.4l5.5,0c0.5,0,1-0.4,1.1-0.9l5-26.4l1.2-7.1C387.2-51.2,387.1-51.5,386.9-51.7L386.9-51.7z"/>
		</g>
	</g>
</g>
</svg>
