<?xml version="1.0" encoding="utf-8"?>
<!-- Generator: Adobe Illustrator 22.0.1, SVG Export Plug-In . SVG Version: 6.00 Build 0)  -->
<svg version="1.1"
	 id="svg10" inkscape:version="1.0 (4035a4fb49, 2020-05-01)" sodipodi:docname="logo_background.svg" xmlns:cc="http://creativecommons.org/ns#" xmlns:dc="http://purl.org/dc/elements/1.1/" xmlns:inkscape="http://www.inkscape.org/namespaces/inkscape" xmlns:rdf="http://www.w3.org/1999/02/22-rdf-syntax-ns#" xmlns:sodipodi="http://sodipodi.sourceforge.net/DTD/sodipodi-0.dtd" xmlns:svg="http://www.w3.org/2000/svg"
	 xmlns="http://www.w3.org/2000/svg" xmlns:xlink="http://www.w3.org/1999/xlink" x="0px" y="0px" viewBox="0 0 608 96"
	 style="enable-background:new 0 0 608 96;" xml:space="preserve">
<style type="text/css">
	.st0{fill:#D9222A;}
	.st1{fill:#FFFFFF;}
</style>
<sodipodi:namedview  bordercolor="#666666" borderopacity="1" gridtolerance="10" guidetolerance="10" id="namedview12" inkscape:current-layer="g18" inkscape:cx="304" inkscape:cy="48" inkscape:pageopacity="0" inkscape:pageshadow="2" inkscape:window-height="2066" inkscape:window-maximized="1" inkscape:window-width="3840" inkscape:window-x="-11" inkscape:window-y="-11" inkscape:zoom="5.9884868" objecttolerance="10" pagecolor="#ffffff" showgrid="false">
	</sodipodi:namedview>
<path class="st0" d="M560,96H49.7c-26.4,0-48-21.6-48-48v0c0-26.4,21.6-48,48-48L560,0c26.4,0,48,21.6,48,48v0
	C608,74.4,586.4,96,560,96z"/>
<g id="Page-1">
	<g id="Artboard">
		<g id="Media_Markt-1-Copy" transform="translate(20.000000, 93.000000)">
			<path id="Fill-2" class="st1" d="M473.5-53.8l0.1-0.9c0.1-0.4,0-0.8-0.3-1.1c-0.2-0.3-0.6-0.5-1-0.5h-6.7c-0.6,0-1.2,0.4-1.3,1
				l-0.2,1L457-14.9c-0.1,0.4,0.1,0.8,0.3,1.1c0.3,0.3,0.6,0.5,1,0.5l3.3-0.1h3.1c0.6,0,1.1-0.4,1.3-1l4.9-24.4
				c1.6-6.2,5.7-8,9.3-8.6c0.2,0,0.9,0,1.1-0.1c-2.5,14.8-5.4,32.3-5.5,32.6c-0.1,0.4,0,0.8,0.3,1c0.2,0.3,0.6,0.5,1,0.5h7.2
				c0.6,0,1.1-0.4,1.2-0.9c0.2-0.7,2-10.8,3-16.8c2.7,4.1,11.2,17.1,11.2,17.1c0.2,0.4,0.6,0.6,1.1,0.6l8.7,0c0.2,0,0.3,0,0.4-0.1
				c0.2,0.1,0.4,0.1,0.6,0.1l7.3-0.1c0.6,0,1.2-0.5,1.3-1.1c0,0,5.3-30.6,5.6-32.6c1.7,0,8.4,0,8.4,0c0.6,0,1.2-0.5,1.3-1.1l1.1-6.6
				c0-0.1,0-0.1,0-0.2c0-0.3-0.1-0.6-0.3-0.8c-0.2-0.3-0.6-0.5-1-0.5h-8.3c0.4-2.3,1.9-10.9,1.9-10.9c0-0.1,0-0.1,0-0.2
				c0-0.3-0.1-0.6-0.3-0.8c-0.2-0.3-0.6-0.5-1-0.5h-7.3c-0.6,0-1.2,0.5-1.3,1.1c0,0-1.6,9.6-1.9,11.3c-0.7,0-1.3,0-1.3,0l-1.1,0
				l-1.2,0c-0.5,0-0.9,0.2-1.1,0.6c-0.2-0.4-0.6-0.6-1.1-0.6l-6.7,0h-1.9c-0.4,0-0.7,0.2-1,0.4c0,0-6.7,7.7-10.2,11.5
				c1-6.1,3.9-22.8,3.9-22.8c0-0.1,0-0.1,0-0.2c0-0.3-0.1-0.6-0.3-0.8c-0.2-0.3-0.6-0.5-1-0.5l-7.2,0c-0.6,0-1.2,0.4-1.3,1.1
				c-0.2,1-0.9,5.5-1.9,11.4c0,0,0,0,0-0.1c-0.3-0.3-0.6-0.5-1-0.4C478.7-56.6,476-55.4,473.5-53.8z M509.8-17
				c-3-4.8-11.7-18.8-12.4-20c1-1.2,11.6-14.1,13.8-16.6l-1,5c-0.1,0.4,0,0.8,0.3,1.1c0.2,0.3,0.6,0.5,1,0.5h3.3
				C514.3-44.8,510.9-23.8,509.8-17z M261.3-33.8c-1.5,5.3-6.5,10.3-11.4,11.5c-3.7,0.5-6.5,0.1-8.4-1.1c-2-1.4-3-3.8-3.8-5.9
				c-0.1-0.8-0.2-1.6-0.2-2.3c0-4.8,2.6-9.4,7.3-13c2.7-1.9,6.4-2.6,9.6-1.9c1.8,0.4,4.3,1.5,5.9,4.3c0.9,1.5,1.3,3.5,1.3,5.4
				C261.7-35.7,261.6-34.7,261.3-33.8z M224.5-67.7l-1.6,8.5c-0.1,0.4,0,0.8,0.3,1.1c0.2,0.3,0.6,0.5,1,0.5h7.6
				c0.6,0,1.2-0.4,1.3-1.1l1.4-8.4c0.1-0.4,0-0.8-0.3-1.1c-0.2-0.3-0.6-0.5-1-0.5l-7.4-0.1C225.1-68.7,224.6-68.3,224.5-67.7z
				 M208.1-33.8L208.1-33.8c0.3-0.9,0.4-2,0.4-3c0-1.9-0.5-3.8-1.3-5.4c-1.6-2.8-4.1-3.9-5.9-4.3c-3.2-0.7-6.9,0-9.6,1.9
				c-4.7,3.5-7.3,8.2-7.3,13c0,0.8,0.1,1.5,0.2,2.3c0.8,2.2,1.8,4.6,3.8,5.9c1.9,1.2,4.6,1.6,8.4,1.1
				C201.6-23.5,206.6-28.5,208.1-33.8z M146.1-39.8L146.1-39.8c3.1,0,17.9-0.2,20-0.2c-0.2-1.4-0.9-2.8-2.5-4.4
				c-1.7-1.5-4.1-2.2-7.5-2.2C152.5-46.1,148.2-43.7,146.1-39.8z M449.9-33.8c-1.5,5.3-6.5,10.3-11.4,11.5c-3.7,0.5-6.5,0.1-8.4-1.1
				c-2-1.4-3-3.8-3.8-5.9c-0.1-0.8-0.2-1.6-0.2-2.3c0-4.8,2.6-9.4,7.3-13c2.7-1.9,6.4-2.6,9.6-1.9c1.8,0.4,4.3,1.5,5.9,4.3
				c0.9,1.5,1.3,3.5,1.3,5.4C450.3-35.7,450.2-34.7,449.9-33.8z M43.2-14.1v-0.8c0-0.1,0.1-0.2,0.2-0.2l53.9-62.1
				c0.2-0.2,0.5-0.3,0.7-0.3h8.7c0.3,0,0.6,0.1,0.7,0.4c0.1,0.2,0.2,0.4,0.2,0.6c0,0.1,0,0.1,0,0.2c0,0-6.7,33.3-8,39.3
				c4.2-4.8,35.6-40.2,35.6-40.2c0.2-0.2,0.4-0.3,0.7-0.3h8.2c0.3,0,0.6,0.1,0.8,0.4c0.2,0.2,0.2,0.5,0.2,0.8l-8.6,34.9
				c0.1-0.1,0.1-0.3,0.2-0.4c4.1-8,11.9-13.5,20.3-14.6c0,0,0.1,0,0.1,0c7.6-0.4,13.5,2.5,17,8.3c0,0,0,0.1,0.1,0.1
				c1.3,2.5,2.2,6,2.4,9.5c1.4-4.2,4-8.1,7.5-11.3c6-5.6,13.3-7.8,20.6-6.2c0.1,0,0.2,0,0.2,0.1l0.7,0.3c1.6,0.7,3.4,1.5,4.9,2.8
				c0.8-3.7,3.1-14.7,3.1-14.7c0.1-0.6,0.7-1,1.3-1h6.7c0.4,0,0.8,0.2,1,0.5c0.2,0.3,0.4,0.7,0.3,1.1L213-14.3
				c-0.1,0.6-0.7,1.1-1.3,1.1l-6.7,0c-0.4,0-0.8-0.2-1-0.5c-0.2-0.2-0.3-0.5-0.3-0.8c0-0.1,0-0.2,0-0.2c0,0,0.2-0.9,0.3-1.5
				c-5.4,3.4-10.9,4.7-16.1,3.7c-5.9-1.2-11.4-6.9-12.5-13.1c-0.3-1.7-0.4-3.3-0.4-4.9c-0.2,0.2-0.5,0.3-0.9,0.3c0,0-29.5,0-30.9,0
				c0,0.1-0.1,0.2-0.1,0.4c0,0.5,0.2,1.1,0.4,1.8c0,0,0.1,0.3,0.1,0.5c1.5,3.6,5,5.9,9,5.8c4-0.1,7.7-2,10.9-5.7
				c0.2-0.3,0.6-0.4,1-0.4h6.9c0.4,0,0.9,0.2,1.1,0.6c0.2,0.4,0.3,0.8,0.1,1.3c-3.9,8.2-12.7,13.8-21.9,13.8
				c-6.4-0.2-11.8-3.4-14.8-8.6c-1.5-2.8-2.2-6.2-2.2-9.8l-4,16.4c-0.1,0.4-0.5,0.7-1,0.7h-8.7c-0.3,0-0.6-0.1-0.8-0.4
				c-0.1-0.2-0.2-0.4-0.2-0.6c0-0.1,0-0.2,0-0.2c3.4-14.2,8.2-34.4,9.9-42.3c-4.2,4.9-36.9,43.1-36.9,43.1c-0.2,0.2-0.4,0.3-0.7,0.3
				l-7.4,0.1c-0.3,0-0.6-0.1-0.8-0.4c-0.1-0.2-0.2-0.4-0.2-0.6c0-0.1,0-0.1,0-0.2c3.1-14.4,7.5-34.8,9-42.8
				c-4,4.8-36.5,43.6-36.5,43.6c-0.2,0.2-0.5,0.4-0.8,0.3c-2.5-0.1-4.4-0.1-6.6-0.1h-4.2C43.7-13.6,43.4-13.8,43.2-14.1z
				 M461.9-55.8c-0.2-0.3-0.6-0.5-1-0.5h-6.7c-0.6,0-1.1,0.4-1.3,1l-0.5,2.5c-1.5-1.3-3-2.2-5.1-3l-0.7-0.3c-0.1,0-0.2-0.1-0.2-0.1
				c-7.3-1.6-14.6,0.6-20.6,6.2c-3,2.8-5.3,6-6.8,9.4l8.8-35.9c0.1-0.3,0-0.6-0.2-0.8c-0.2-0.2-0.5-0.4-0.8-0.4h-8.2
				c-0.3,0-0.5,0.1-0.7,0.3c0,0-31.3,35.4-35.6,40.2c1.2-6,8.2-39.3,8.2-39.3c0-0.1,0-0.1,0-0.2c0-0.2-0.1-0.4-0.2-0.6
				c-0.2-0.2-0.5-0.4-0.8-0.4h-9c-0.3,0-0.6,0.1-0.7,0.3l-45.1,52.1c-0.8-7.6-4.4-15.9-4.4-15.9c-6.1-12.4-19.5-16.4-27.1-9.3
				l-0.1,0l-1.2,0.9c5.5-8.8,19.6-8.4,28.6,2c0,0,4,4.8,6.9,12c0.8-2.5,1.2-5.2,1.4-7.9c-4.7-6.4-10-10.1-10-10.1
				c-11.4-7.7-25.1-4.5-28.2,5.5l0,0l-0.6,1.3c0.4-10.4,12.7-17.1,25.8-12.6c0,0,6.1,2.3,12.3,7.2c-0.1-0.4-0.2-0.8-0.3-1.2
				c-0.7-2.6-1.6-5.1-2.9-7.5c-7.2-3.1-13.6-3.7-13.6-3.7c-13.8-1-24,8.7-21.6,18.9l0,0.1l0.2,1.5c-4.9-9.2,2.5-21.2,16-23.8
				c0,0,6.3-1.1,14,0.1c-2-2.1-4.2-3.9-6.7-5.4c-7.7,0.9-13.5,3.6-13.5,3.6c-12.4,6-16.4,19.5-9.3,27.2l0,0l0.9,1.2
				c-8.8-5.5-8.4-19.6,2-28.6c0,0,4.9-4.1,12.1-6.9c-3-0.9-6.1-1.3-9.2-1.4c-6,4.6-9.6,9.6-9.6,9.6c-7.7,11.4-4.5,25.1,5.5,28.2l0,0
				l1.4,0.6c-10.4-0.4-17.1-12.7-12.6-25.8c0,0,2.1-5.6,6.6-11.5c-2.6,0.7-5.1,1.7-7.4,2.9c-2.9,7-3.5,13.1-3.5,13.1
				c-1,13.8,8.7,24,18.9,21.6l0,0l1.5-0.2c-9.2,4.9-21.2-2.5-23.8-16c0,0-1.1-6,0-13.6c-2.2,2.1-4.1,4.5-5.7,7.1
				c1,7.4,3.5,12.9,3.5,12.9c6,12.4,19.5,16.4,27.1,9.3l0.1,0l1.2-0.9c-5.5,8.8-19.6,8.4-28.6-2c0,0-4.6-5.8-7.1-12.5
				c0-0.3-0.1-0.6-0.3-0.9c-0.2-0.3-0.6-0.5-1-0.5h-6.7c-0.6,0-1.1,0.4-1.3,1c0,0-0.5,0.8-0.8,2.3c-1.5-1.3-3.3-2.1-4.9-2.8L258-56
				c-0.1,0-0.2-0.1-0.2-0.1c-7.3-1.6-14.6,0.6-20.6,6.2c-3.5,3.3-6.1,7.1-7.5,11.3c0,0,0,0.1-0.1,0.3l2.9-16.5
				c0.1-0.4,0-0.8-0.3-1.1c-0.3-0.3-0.6-0.5-1-0.5l-7.2,0c-0.6,0-1.2,0.5-1.3,1.1l-7.4,40.4c-0.1,0.4,0,0.8,0.3,1.1
				c0.2,0.3,0.6,0.5,1,0.5l7.5,0c0.6,0,1.2-0.5,1.3-1.1l2.9-16.4c0,0.1,0.1,0.2,0.1,0.2c0,1.6,0.1,3.3,0.4,4.9
				c1.1,6.2,6.6,11.9,12.5,13.1c5.1,0.9,10.6-0.4,16.1-3.7c-0.1,0.6-0.3,1.5-0.3,1.5c0,0.1,0,0.2,0,0.2c0,0.3,0.1,0.6,0.3,0.8
				c0.2,0.3,0.6,0.5,1,0.5l6.7,0c0.6,0,1.2-0.4,1.3-1.1l5.9-31.8c4.4,5.2,10.1,9.7,10.1,9.7c11.4,7.7,25.1,4.5,28.2-5.5l0,0l0.6-1.4
				c-0.4,10.4-12.7,17.1-25.8,12.6c0,0-5.6-2.1-11.5-6.6c0.1,0.2,0.1,0.4,0.1,0.7c0.7,2.7,1.7,5.3,3,7.7c6.9,2.8,12.8,3.4,12.8,3.4
				c13.7,1,24-8.7,21.6-18.9l0-0.1l-0.2-1.5c4.9,9.2-2.5,21.2-16,23.8c0,0-5.9,1-13.3,0c1.8,1.9,3.8,3.5,6,5
				c7.7-0.9,13.4-3.6,13.4-3.6c12.4-6,16.4-19.5,9.3-27.1l0-0.1l-0.9-1.2c8.8,5.5,8.4,19.6-2,28.6c0,0-5,4.1-12.3,7
				c2,0.7,4.1,1.2,6.2,1.4h3c6.2-4.6,9.8-9.7,9.8-9.7c7.7-11.4,4.5-25.1-5.5-28.2l0,0l-1.3-0.6c10.4,0.4,17.1,12.7,12.6,25.8
				c0,0-2.2,6.1-7.2,12.3c0.4-0.1,0.8-0.2,1.2-0.3c2.5-0.6,4.9-1.6,7.1-2.7c3.1-7.2,3.6-13.5,3.6-13.5c1-13.7-8.7-24-18.9-21.6l0,0
				l-1.5,0.2c9.2-4.9,21.2,2.5,23.8,16c0,0,1.5,6.2,0.4,13.6c-0.2,1.1-0.7,2.6-1.5,4.2c-0.3,0.5-0.6,1-1,1.6c0,0,0,0,0,0
				c0,0,0,0,0,0.1c0,0,0,0,0,0c-0.2,0.3-0.2,0.6-0.1,0.9c0.2,0.3,0.5,0.6,0.9,0.6h4.2c2.2,0,4.1,0,6.6,0.1c0.3,0,0.6-0.1,0.8-0.3
				c0,0,32.4-38.8,36.4-43.6c-1.5,8-5.9,28.4-9,42.8c0,0.1,0,0.1,0,0.2c0,0.2,0.1,0.4,0.2,0.6c0.2,0.2,0.5,0.4,0.8,0.4l7.4-0.1
				c0.3,0,0.5-0.1,0.7-0.3c0,0,32.7-38.3,36.9-43.1c-1.7,8-6.5,28.1-9.9,42.3c0,0.1,0,0.1,0,0.2c0,0.2,0.1,0.4,0.2,0.6
				c0.2,0.2,0.5,0.4,0.8,0.4h8.7c0.4,0,0.8-0.3,0.9-0.7l3.8-15.3l0.5-2.2c0,0.6,0,1.1,0,1.1c0,1.6,0.1,3.3,0.4,4.9
				c1.1,6.2,6.6,11.9,12.5,13.1c5.1,0.9,10.7-0.4,16.1-3.7c-0.1,0.6-0.3,1.5-0.3,1.5c0,0.1,0,0.2,0,0.2c0,0.3,0.1,0.6,0.3,0.8
				c0.3,0.3,0.6,0.5,1,0.5l6.7,0c0.6,0,1.2-0.4,1.3-1.1l6-32l1.4-8.6C462.2-55.3,462.1-55.6,461.9-55.8L461.9-55.8z"/>
		</g>
	</g>
</g>
</svg>
