<?xml version="1.0" encoding="utf-8"?>
<!-- Generator: Adobe Illustrator 22.0.1, SVG Export Plug-In . SVG Version: 6.00 Build 0)  -->
<svg version="1.1"
	 id="svg10" inkscape:version="1.0 (4035a4fb49, 2020-05-01)" sodipodi:docname="logo_background.svg" xmlns:cc="http://creativecommons.org/ns#" xmlns:dc="http://purl.org/dc/elements/1.1/" xmlns:inkscape="http://www.inkscape.org/namespaces/inkscape" xmlns:rdf="http://www.w3.org/1999/02/22-rdf-syntax-ns#" xmlns:sodipodi="http://sodipodi.sourceforge.net/DTD/sodipodi-0.dtd" xmlns:svg="http://www.w3.org/2000/svg"
	 xmlns="http://www.w3.org/2000/svg" xmlns:xlink="http://www.w3.org/1999/xlink" x="0px" y="0px" viewBox="0 0 960 96"
	 style="enable-background:new 0 0 960 96;" xml:space="preserve">
<style type="text/css">
	.st0{fill:#D9222A;}
	.st1{fill:#FFFFFF;}
</style>
<sodipodi:namedview  bordercolor="#666666" borderopacity="1" gridtolerance="10" guidetolerance="10" id="namedview12" inkscape:current-layer="g18" inkscape:cx="304" inkscape:cy="48" inkscape:pageopacity="0" inkscape:pageshadow="2" inkscape:window-height="2066" inkscape:window-maximized="1" inkscape:window-width="3840" inkscape:window-x="-11" inkscape:window-y="-11" inkscape:zoom="5.9884868" objecttolerance="10" pagecolor="#ffffff" showgrid="false">
	</sodipodi:namedview>
<path class="st0" d="M912,96H48C21.6,96,0,74.4,0,48l0,0C0,21.6,21.6,0,48,0l864,0c26.4,0,48,21.6,48,48v0C960,74.4,938.4,96,912,96
	z"/>
<g id="Page-1">
	<g id="Artboard">
		<g id="Media_Markt-1-Copy" transform="translate(20.000000, 93.000000)">
			<path id="Fill-2" class="st1" d="M689-54l0.2-1.1c0.1-0.4,0-0.9-0.3-1.3c-0.3-0.3-0.7-0.5-1.2-0.5h-7.9c-0.7,0-1.4,0.5-1.5,1.2
				l-0.2,1.2l-8.5,46.2c-0.1,0.4,0.1,0.9,0.4,1.3c0.3,0.3,0.8,0.5,1.2,0.5l3.9-0.1h3.7c0.7,0,1.3-0.5,1.5-1.2l5.8-28.7
				c1.9-7.3,6.7-9.4,11-10.1c0.2,0,1.1,0,1.3-0.1c-2.9,17.4-6.4,38-6.4,38.3c-0.1,0.4,0.1,0.9,0.3,1.2c0.3,0.3,0.7,0.5,1.2,0.5h8.5
				c0.7,0,1.3-0.4,1.4-1.1c0.3-0.8,2.3-12.7,3.5-19.8c3.2,4.8,13.2,20.1,13.2,20.1c0.3,0.4,0.8,0.7,1.3,0.7l10.2,0
				c0.2,0,0.4,0,0.5-0.1c0.2,0.1,0.5,0.2,0.7,0.2l8.6-0.1c0.7,0,1.4-0.5,1.5-1.3c0,0,6.2-36,6.6-38.3c2,0,9.9,0,9.9,0
				c0.7,0,1.4-0.5,1.5-1.3l1.3-7.7c0-0.1,0-0.2,0-0.3c0-0.3-0.1-0.7-0.4-1c-0.3-0.3-0.7-0.5-1.2-0.5H751c0.5-2.7,2.2-12.8,2.2-12.8
				c0-0.1,0-0.2,0-0.3c0-0.4-0.1-0.7-0.4-1c-0.3-0.3-0.7-0.5-1.2-0.5h-8.5c-0.7,0-1.4,0.5-1.5,1.3c0,0-1.9,11.3-2.3,13.3
				c-0.8,0-1.6,0-1.6,0l-1.3,0l-1.4,0c-0.5,0-1,0.3-1.3,0.7c-0.3-0.4-0.7-0.7-1.3-0.7l-7.8,0h-2.3c-0.4,0-0.8,0.2-1.1,0.5
				c0,0-7.9,9-12.1,13.6c1.2-7.2,4.6-26.9,4.6-26.9c0-0.1,0-0.2,0-0.3c0-0.4-0.1-0.7-0.4-1c-0.3-0.3-0.7-0.5-1.2-0.5l-8.5,0
				c-0.7,0-1.4,0.5-1.5,1.3c-0.2,1.2-1.1,6.4-2.3,13.4c0,0,0,0,0-0.1c-0.3-0.4-0.7-0.5-1.2-0.5C695.2-57.3,691.9-55.8,689-54z
				 M731.7-10.7c-3.5-5.6-13.7-22.1-14.6-23.5c1.2-1.4,13.7-16.6,16.2-19.6l-1.1,5.9c-0.1,0.4,0,0.9,0.3,1.3
				c0.3,0.3,0.7,0.6,1.2,0.6h3.9C737.1-43.4,733-18.7,731.7-10.7z M439.3-30.4c-1.8,6.2-7.7,12.1-13.4,13.5
				c-4.4,0.6-7.6,0.2-9.8-1.3c-2.4-1.6-3.5-4.4-4.5-7c-0.2-0.9-0.2-1.8-0.2-2.7c0-5.7,3-11.1,8.6-15.3c3.2-2.2,7.5-3.1,11.4-2.2
				c2.2,0.5,5.1,1.8,6.9,5.1c1,1.8,1.6,4.1,1.6,6.3C439.8-32.7,439.7-31.5,439.3-30.4z M396-70.3l-1.8,10c-0.1,0.4,0,0.9,0.3,1.3
				c0.3,0.3,0.7,0.5,1.2,0.5h8.9c0.7,0,1.4-0.5,1.5-1.3l1.7-9.9c0.1-0.4,0-0.9-0.3-1.3c-0.3-0.3-0.7-0.6-1.2-0.6l-8.7-0.1
				C396.7-71.5,396.1-71,396-70.3z M376.8-30.4L376.8-30.4c0.3-1.1,0.5-2.3,0.5-3.5c0-2.2-0.5-4.5-1.6-6.3c-1.8-3.3-4.8-4.6-6.9-5.1
				c-3.8-0.9-8.2,0-11.4,2.2c-5.6,4.2-8.6,9.6-8.6,15.3c0,0.9,0.1,1.8,0.2,2.7c0.9,2.5,2.1,5.4,4.5,7c2.2,1.5,5.5,1.9,9.8,1.3
				C369.1-18.3,375-24.2,376.8-30.4z M303.8-37.5L303.8-37.5c3.6,0,21.1-0.2,23.6-0.2c-0.2-1.7-1.1-3.3-2.9-5.1
				c-2.1-1.8-4.9-2.6-8.9-2.6C311.2-44.9,306.2-42,303.8-37.5z M661.2-30.4c-1.8,6.2-7.6,12.1-13.4,13.5c-4.4,0.6-7.6,0.2-9.8-1.3
				c-2.4-1.6-3.6-4.4-4.5-7c-0.2-0.9-0.2-1.8-0.2-2.7c0-5.7,3-11.1,8.6-15.3c3.2-2.2,7.5-3.1,11.4-2.2c2.1,0.5,5.1,1.8,6.9,5.1
				c1,1.8,1.6,4.1,1.6,6.3C661.7-32.7,661.6-31.5,661.2-30.4z M182.7-7.3v-0.9c0-0.1,0.1-0.2,0.2-0.3l63.4-73.1
				c0.2-0.2,0.5-0.4,0.9-0.4h10.2c0.3,0,0.7,0.2,0.9,0.4c0.2,0.2,0.3,0.5,0.3,0.7c0,0.1,0,0.2,0,0.2c0,0-7.9,39.2-9.4,46.3
				c5-5.6,41.9-47.3,41.9-47.3c0.2-0.3,0.5-0.4,0.8-0.4h9.6c0.4,0,0.7,0.2,0.9,0.4c0.2,0.3,0.3,0.6,0.2,1l-10.1,41
				c0.1-0.2,0.2-0.3,0.2-0.4c4.8-9.4,14-15.9,23.8-17.1c0,0,0.1,0,0.1,0c8.9-0.5,15.9,2.9,20,9.8c0,0,0,0.1,0.1,0.1
				c1.5,3,2.6,7,2.8,11.1c1.7-4.9,4.7-9.5,8.9-13.3c7.1-6.6,15.7-9.2,24.3-7.3c0.1,0,0.2,0.1,0.3,0.1l0.8,0.3c1.9,0.8,4,1.7,5.7,3.3
				c0.9-4.4,3.7-17.3,3.7-17.3c0.2-0.7,0.8-1.2,1.5-1.2h7.9c0.5,0,0.9,0.2,1.2,0.5c0.3,0.3,0.4,0.8,0.3,1.3L382.4-7.5
				c-0.1,0.7-0.8,1.2-1.5,1.2l-7.8,0c-0.5,0-0.9-0.2-1.2-0.5c-0.2-0.3-0.4-0.6-0.4-1c0-0.1,0-0.2,0-0.3c0,0,0.2-1,0.3-1.7
				C365.5-5.9,359-4.3,353-5.4c-6.9-1.4-13.4-8.2-14.7-15.4c-0.4-1.9-0.5-3.9-0.5-5.8c-0.3,0.2-0.6,0.4-1,0.4c0,0-34.7,0-36.4,0
				c0,0.1-0.1,0.3-0.1,0.4c0,0.6,0.2,1.3,0.4,2.1c0,0,0.1,0.4,0.2,0.5c1.7,4.2,5.9,6.9,10.6,6.8c4.7-0.1,9-2.3,12.9-6.6
				c0.3-0.3,0.7-0.5,1.1-0.5h8.1c0.5,0,1,0.3,1.3,0.7c0.3,0.4,0.3,1,0.1,1.5c-4.6,9.7-14.9,16.2-25.8,16.2
				c-7.5-0.3-13.9-4-17.4-10.1c-1.8-3.3-2.6-7.3-2.5-11.5l-4.8,19.3c-0.1,0.5-0.6,0.9-1.1,0.9h-10.3c-0.3,0-0.7-0.2-0.9-0.4
				c-0.2-0.2-0.3-0.5-0.3-0.7c0-0.1,0-0.2,0-0.3c4-16.7,9.6-40.4,11.7-49.8C278.8-52,240.3-7,240.3-7c-0.2,0.3-0.5,0.4-0.9,0.4
				l-8.7,0.1c-0.3,0-0.7-0.2-0.9-0.4c-0.2-0.2-0.3-0.5-0.3-0.7c0-0.1,0-0.2,0-0.2c3.7-16.9,8.8-41,10.6-50.3
				c-4.7,5.7-42.9,51.3-42.9,51.3c-0.2,0.3-0.6,0.4-0.9,0.4c-3-0.1-5.2-0.1-7.8-0.1h-4.9C183.3-6.6,182.9-6.9,182.7-7.3z
				 M675.3-56.3c-0.3-0.3-0.7-0.5-1.2-0.5h-7.9c-0.7,0-1.3,0.5-1.5,1.2l-0.6,3c-1.8-1.6-3.5-2.6-6-3.6l-0.8-0.3
				c-0.1,0-0.2-0.1-0.3-0.1c-8.6-1.9-17.2,0.7-24.3,7.3c-3.5,3.2-6.2,7-8,11.1l10.4-42.2c0.1-0.3,0-0.7-0.2-1
				c-0.2-0.3-0.5-0.4-0.9-0.4h-9.6c-0.3,0-0.6,0.1-0.9,0.4c0,0-36.9,41.6-41.9,47.3c1.5-7.1,9.7-46.3,9.7-46.3c0-0.1,0-0.2,0-0.2
				c0-0.3-0.1-0.5-0.3-0.7c-0.2-0.3-0.5-0.4-0.9-0.4h-10.6c-0.3,0-0.6,0.1-0.9,0.4l-53.1,61.4c-0.9-8.9-5.1-18.7-5.1-18.7
				c-7.1-14.6-23-19.3-31.9-10.9l-0.1,0l-1.4,1c6.5-10.4,23-9.9,33.7,2.3c0,0,4.7,5.7,8.1,14.1c0.9-3,1.4-6.1,1.6-9.2
				c-5.5-7.5-11.8-11.9-11.8-11.9c-13.4-9.1-29.5-5.2-33.1,6.5l0,0l-0.7,1.6c0.4-12.3,15-20.1,30.3-14.9c0,0,7.2,2.6,14.5,8.5
				c-0.1-0.5-0.2-0.9-0.3-1.4c-0.8-3.1-1.9-6-3.4-8.8c-8.5-3.7-16-4.4-16-4.4C493.7-67.3,481.7-56,484.5-44l0,0.1l0.2,1.7
				c-5.7-10.9,2.9-24.9,18.8-28c0,0,7.4-1.3,16.5,0.1c-2.3-2.4-4.9-4.6-7.9-6.4c-9.1,1.1-15.9,4.2-15.9,4.2
				c-14.6,7.1-19.3,23-10.9,32l0,0.1l1,1.4c-10.4-6.5-9.9-23.1,2.3-33.7c0,0,5.7-4.8,14.2-8.1c-3.5-1.1-7.1-1.6-10.8-1.6
				c-7.1,5.4-11.3,11.3-11.3,11.3c-9.1,13.5-5.2,29.5,6.5,33.1l0,0l1.6,0.7c-12.3-0.4-20.1-15-14.8-30.3c0,0,2.4-6.6,7.8-13.6
				c-3.1,0.8-6,2-8.7,3.4c-3.5,8.3-4.1,15.5-4.1,15.5C467.9-46,479.2-34,491.2-36.7l0.1,0l1.7-0.2c-10.9,5.8-24.9-2.9-28-18.8
				c0,0-1.2-7.1,0-16c-2.6,2.5-4.8,5.3-6.7,8.4c1.2,8.7,4.1,15.2,4.1,15.2c7.1,14.6,23,19.3,31.9,10.9l0.1,0l1.4-1
				c-6.5,10.4-23,9.9-33.7-2.3c0,0-5.5-6.8-8.3-14.8c0-0.4-0.1-0.7-0.3-1c-0.3-0.3-0.7-0.5-1.2-0.5h-7.9c-0.7,0-1.3,0.5-1.5,1.2
				c0,0-0.6,0.9-0.9,2.7c-1.8-1.6-3.8-2.5-5.7-3.3l-0.8-0.3c-0.1,0-0.2-0.1-0.3-0.1c-8.6-1.9-17.2,0.7-24.3,7.3
				c-4.2,3.8-7.2,8.4-8.9,13.3c0,0-0.1,0.1-0.1,0.3l3.4-19.4c0.1-0.4,0-0.9-0.3-1.2c-0.3-0.3-0.7-0.5-1.2-0.5l-8.4,0
				c-0.7,0-1.4,0.5-1.5,1.3l-8.7,47.5c-0.1,0.4,0,0.9,0.3,1.3c0.3,0.3,0.7,0.5,1.2,0.5l8.9,0c0.8,0,1.4-0.5,1.5-1.3l3.4-19.3
				c0,0.1,0.1,0.2,0.1,0.2c0,1.9,0.1,3.9,0.5,5.8c1.3,7.3,7.7,14,14.7,15.4c6.1,1.1,12.5-0.4,18.9-4.4c-0.1,0.7-0.3,1.7-0.3,1.7
				c0,0.1,0,0.2,0,0.3c0,0.4,0.1,0.7,0.3,1c0.3,0.3,0.7,0.5,1.2,0.5l7.8,0c0.7,0,1.4-0.5,1.5-1.2l6.9-37.4
				c5.2,6.1,11.9,11.4,11.9,11.4c13.4,9.1,29.5,5.2,33.1-6.5l0.1,0l0.7-1.6c-0.4,12.3-15,20.1-30.3,14.8c0,0-6.6-2.4-13.6-7.8
				c0.1,0.3,0.1,0.5,0.2,0.8c0.8,3.2,2,6.3,3.6,9.1c8.1,3.3,15.1,4,15.1,4c16.2,1.1,28.2-10.2,25.4-22.2l0-0.1l-0.2-1.7
				c5.8,10.9-2.9,24.9-18.8,28c0,0-7,1.2-15.7,0c2.1,2.2,4.4,4.2,7,5.9c9-1.1,15.7-4.2,15.7-4.2c14.6-7.1,19.3-23,10.9-31.9l0-0.1
				l-1-1.4c10.4,6.5,9.9,23-2.3,33.7c0,0-5.8,4.8-14.5,8.2c2.4,0.8,4.8,1.4,7.3,1.7h3.5c7.2-5.5,11.5-11.5,11.5-11.5
				c9.1-13.5,5.2-29.5-6.5-33.1l0,0l-1.6-0.7c12.3,0.4,20.1,15,14.8,30.3c0,0-2.6,7.2-8.5,14.5c0.5-0.1,0.9-0.2,1.4-0.3
				c3-0.8,5.8-1.9,8.3-3.2c3.6-8.4,4.3-15.9,4.3-15.9c1.1-16.2-10.2-28.2-22.2-25.5l0,0l-1.7,0.2c10.8-5.8,24.9,2.9,28,18.8
				c0,0,1.8,7.3,0.4,16c-0.3,1.3-0.8,3.1-1.8,5c-0.3,0.5-0.7,1.2-1.2,1.9c0,0,0,0,0,0c0,0,0,0,0,0.1c0,0,0,0,0,0
				c-0.2,0.3-0.2,0.7-0.1,1c0.2,0.4,0.6,0.7,1,0.7h4.9c2.6,0,4.8,0,7.8,0.1c0.4,0,0.7-0.1,0.9-0.4c0,0,38.2-45.6,42.9-51.3
				c-1.8,9.4-6.9,33.4-10.6,50.3c0,0.1,0,0.2,0,0.2c0,0.3,0.1,0.5,0.2,0.7c0.2,0.3,0.5,0.4,0.9,0.4l8.7-0.1c0.3,0,0.6-0.1,0.9-0.4
				c0,0,38.5-45,43.4-50.8c-2.1,9.4-7.7,33.1-11.7,49.8c0,0.1,0,0.2,0,0.3c0,0.2,0.1,0.5,0.2,0.7c0.2,0.3,0.5,0.4,0.9,0.4h10.3
				c0.5,0,1-0.4,1.1-0.9l4.4-18l0.6-2.5c0,0.7,0,1.3,0,1.3c0,1.9,0.1,3.9,0.5,5.8c1.3,7.3,7.7,14,14.7,15.4
				c6.1,1.1,12.5-0.4,18.9-4.4c-0.1,0.7-0.3,1.7-0.3,1.7c0,0.1,0,0.2,0,0.3c0,0.4,0.1,0.7,0.3,1c0.3,0.3,0.7,0.5,1.2,0.5l7.8,0
				c0.7,0,1.4-0.5,1.5-1.2l7.1-37.6l1.7-10.1C675.7-55.7,675.6-56,675.3-56.3L675.3-56.3z"/>
		</g>
	</g>
</g>
</svg>
