<?xml version="1.0" encoding="utf-8"?>
<!-- Generator: Adobe Illustrator 22.0.1, SVG Export Plug-In . SVG Version: 6.00 Build 0)  -->
<svg version="1.1" xmlns="http://www.w3.org/2000/svg" xmlns:xlink="http://www.w3.org/1999/xlink" x="0px" y="0px"
	 viewBox="0 0 1024 768" style="enable-background:new 0 0 1024 768;" xml:space="preserve">
<style type="text/css">
	.st0{display:none;}
	.st1{display:inline;fill:#366F62;stroke:#000000;stroke-miterlimit:10;}
	.st2{display:none;fill:#366F62;}
	.st3{font-family:'Roboto-Thin';}
	.st4{font-size:59.2607px;}
	.st5{fill:#366F62;}
</style>
<g id="Layer_1" class="st0">
	<rect x="-26.5" y="0.5" class="st1" width="1095" height="781"/>
</g>
<g id="Layer_2">
	<text transform="matrix(0.9846 0 0 1 37 519.5459)" class="st2 st3 st4">personalised online marketing system</text>
	<g>
		<path class="st5" d="M157,234H96.2L86,248h65c19.1,0,59.5-0.8,59.5,48.5c0,38.5-28.5,48.5-56,48.5H55v-59.8l-14,17.4V454h14v-95
			h99.8c48.8,0,70.1-26.2,70.1-63.1C224.9,245.7,188.3,234,157,234z"/>
		<path class="st5" d="M358.2,230.3c-2.1,0-4.2,0.1-6.2,0.2l-11,13.3c5.5-0.8,11.3-1.2,17.2-1.2c67.3,0,104.2,49.9,104.2,102.5
			c0,52.6-36.9,102.5-104.2,102.5c-65.6,0-102.4-47.4-104.1-98.6l-12.7,15.4c7.3,42.2,39,95.5,116.9,95.5
			c90.5,0,118.6-72.1,118.6-114.8C476.9,302.4,448.7,230.3,358.2,230.3z"/>
		<polygon class="st5" points="636.5,436.6 549.2,274.7 538.9,286.8 629.3,454 643.7,454 751.7,252 754,252 754,454 768,454 
			768,234 745.1,234 		"/>
		<polygon class="st5" points="507,454 521,454 521,309.6 507,327 		"/>
		<path class="st5" d="M891.3,242.9c58.5,0,73.6,29.1,75.1,55.1h14.4c-1.6-46-37.1-67.3-93.2-67.4L877,243.5
			C881.5,243.1,886.2,242.9,891.3,242.9z"/>
		<path class="st5" d="M917.9,339.9l-46-8.9c-27.9-5.5-41.9-12.4-48.3-23.1l-10.1,12.3c10.3,11.6,28.4,19,56.8,24.7l41.6,8.6
			c46.6,9.9,58.8,20.3,58.8,45.3c0,25.9-19.7,48.2-74.8,48.2c-60.1,0-85.4-25-85.8-66h-14.4c0,50,27.9,78.3,101.4,78.3
			c69.8,0,89.8-32,89.8-61.8C987,362.4,962.6,348.9,917.9,339.9z"/>
	</g>
</g>
</svg>
