<svg width="723" height="270" viewBox="0 0 723 270" fill="none" xmlns="http://www.w3.org/2000/svg">
<path d="M244.902 152.1V205.2H234.097V73.8001H279.116C292.621 73.8001 303.426 77.4001 311.529 84.6001C319.633 91.8001 323.234 100.8 323.234 113.4C323.234 126 319.633 135 311.529 142.2C304.326 148.5 292.621 152.1 278.215 152.1H244.902ZM244.902 142.2H279.116C289.92 142.2 298.024 139.5 303.426 134.1C308.828 128.7 311.529 121.5 311.529 112.5C311.529 103.5 308.828 96.3001 303.426 90.9001C298.024 85.5001 289.92 82.8001 279.116 82.8001H244.902V142.2Z" fill="#929599"/>
<path d="M447.486 146.7C447.486 158.4 445.685 169.2 441.183 178.2C436.681 187.2 431.279 194.4 423.175 198.9C415.072 203.4 406.068 206.1 396.164 206.1C380.858 206.1 368.253 200.7 359.249 189.9C350.245 179.1 344.843 163.8 344.843 145.8V132.3C344.843 120.6 346.644 109.8 351.146 100.8C355.647 91.8 361.05 84.6 369.153 79.2C377.256 74.7 386.26 72 396.164 72C406.068 72 415.072 74.7 423.175 79.2C431.279 83.7 436.681 90.9 441.183 99.9C445.685 108.9 447.486 118.8 447.486 130.5V146.7ZM436.681 132.3C436.681 116.1 433.08 104.4 425.877 95.4C418.674 86.4 408.769 81.9 396.164 81.9C383.559 81.9 374.555 86.4 367.352 95.4C360.149 104.4 356.548 117 356.548 133.2V146.7C356.548 162 360.149 174.6 367.352 183.6C374.555 192.6 384.459 197.1 397.065 197.1C409.67 197.1 419.574 192.6 426.777 183.6C433.98 174.6 437.581 162 437.581 145.8V132.3H436.681Z" fill="#929599"/>
<path d="M491.604 73.8001L539.324 189.9L587.944 73.8001H603.25V205.2H592.446V147.6L593.346 89.1001L543.826 205.2H535.722L487.102 90.0001L488.002 147.6V205.2H476.298V73.8001H491.604Z" fill="#929599"/>
<path d="M711.295 172.8C711.295 165.6 708.594 160.2 703.192 155.7C697.789 151.2 688.786 147.6 675.28 144C661.774 140.4 651.87 135.9 645.568 131.4C636.564 125.1 632.062 117 632.062 106.2C632.062 96.2998 636.564 88.1998 644.667 81.8998C652.771 75.5998 663.575 72.8998 676.18 72.8998C685.184 72.8998 692.387 74.6998 699.59 78.2998C706.793 81.8998 712.195 86.3998 715.797 92.6998C719.398 98.9998 721.199 105.3 721.199 112.5H710.395C710.395 103.5 707.694 96.2998 701.391 90.8998C695.088 85.4998 686.985 80.9998 677.081 80.9998C667.177 80.9998 659.073 83.6998 652.771 87.2998C646.468 91.7998 643.767 98.0998 643.767 105.3C643.767 111.6 646.468 117 651.87 121.5C657.273 126 665.376 129.6 677.981 132.3C689.686 135.9 698.69 138.6 704.992 142.2C711.295 145.8 715.797 149.4 718.498 154.8C721.199 159.3 723 165.6 723 171.9C723 181.8 718.498 190.8 710.395 197.1C702.291 203.4 691.487 206.1 677.981 206.1C668.977 206.1 659.974 204.3 652.771 200.7C644.667 197.1 639.265 192.6 634.763 187.2C631.162 180.9 628.461 174.6 628.461 166.5H639.265C639.265 175.5 642.867 182.7 650.07 188.1C657.273 195.3 666.276 198 677.981 198C687.885 198 695.989 195.3 702.291 190.8C708.594 186.3 711.295 180 711.295 172.8Z" fill="#929599"/>
<path d="M140.458 135.9C135.956 128.7 117.949 119.7 72.03 119.7C26.1109 119.7 8.10343 128.7 3.60156 135.9C-0.900311 143.1 0.900437 181.8 14.406 214.2C27.9116 245.7 38.7161 270 72.03 270C105.344 270 116.148 245.7 129.654 214.2C143.159 181.8 144.96 143.1 140.458 135.9Z" fill="#929599"/>
<path d="M72.0299 0C23.4097 0 0 54.9 0 74.7C0 94.5 39.6164 107.1 72.0299 107.1C104.443 107.1 144.06 94.5 144.06 74.7C144.06 54.9 120.65 0 72.0299 0Z" fill="#929599"/>
</svg>
