<?xml version="1.0" encoding="utf-8"?>
<!-- Generator: Adobe Illustrator 15.0.0, SVG Export Plug-In . SVG Version: 6.00 Build 0)  -->
<!DOCTYPE svg PUBLIC "-//W3C//DTD SVG 1.1//EN" "http://www.w3.org/Graphics/SVG/1.1/DTD/svg11.dtd">
<svg version="1.1" id="Layer_1" xmlns="http://www.w3.org/2000/svg" xmlns:xlink="http://www.w3.org/1999/xlink" x="0px" y="0px"
	 width="300px" height="300px" viewBox="0 0 300 300" enable-background="new 0 0 300 300" xml:space="preserve">
<g id="Layer_2_2_">
	<g>
		<g>
			<path fill="#FFFFFF" d="M64.853,95.385H49.394l-2.588,3.455H63.34c4.855,0,15.126-0.189,15.126,11.957
				c0,9.489-7.246,11.957-14.252,11.957H38.912v-14.735l-3.563,4.3v37.311h3.563V126.21h25.385c12.418,0,17.834-6.455,17.834-15.564
				C82.13,98.271,72.813,95.385,64.853,95.385z"/>
		</g>
		<g>
			<path fill="#FFFFFF" d="M116.047,94.478c-0.542,0-1.064,0.02-1.585,0.039l-2.802,3.286c1.404-0.186,2.861-0.289,4.389-0.289
				c17.118,0,26.51,12.297,26.51,25.282c0,12.98-9.392,25.279-26.51,25.279c-16.696,0-26.043-11.698-26.492-24.319l-3.236,3.802
				c1.863,10.396,9.92,23.553,29.728,23.553c23.01,0,30.172-17.768,30.172-28.316C146.222,112.244,139.06,94.478,116.047,94.478z"/>
		</g>
		<g>
			<polygon fill="#FFFFFF" points="186.826,145.339 164.637,105.415 161.995,108.413 184.994,149.629 188.659,149.629 
				216.128,99.824 216.723,99.824 216.723,149.629 220.276,149.629 220.276,95.385 214.455,95.385 			"/>
		</g>
		<g>
			<polygon fill="#FFFFFF" points="153.89,149.629 157.449,149.629 157.449,114.023 153.89,118.323 			"/>
		</g>
		<g>
			<path fill="#FFFFFF" d="M251.637,97.582c14.888,0,18.706,7.175,19.104,13.585h3.664c-0.396-11.343-9.424-16.591-23.693-16.621
				l-2.701,3.177C249.146,97.641,250.338,97.582,251.637,97.582z"/>
		</g>
		<g>
			<path fill="#FFFFFF" d="M258.4,121.504l-11.702-2.202c-7.097-1.341-10.661-3.051-12.28-5.693l-2.573,3.021
				c2.608,2.862,7.218,4.679,14.457,6.088l10.588,2.125c11.866,2.435,14.968,5.01,14.968,11.162c0,6.375-5.017,11.895-19.029,11.895
				c-15.284,0-21.734-6.155-21.813-16.266h-3.663c0,12.325,7.086,19.302,25.796,19.302c17.753,0,22.848-7.883,22.848-15.248
				C275.998,127.037,269.786,123.708,258.4,121.504z"/>
		</g>
	</g>
</g>
<path fill="#FFFFFF" d="M36.438,160.7h0.058c0.458-1.492,2.12-3.728,5.358-3.728c4.499,0,6.621,3.612,6.621,7.741
	c0,4.47-2.122,7.68-6.621,7.68c-2.436,0-4.471-1.002-5.358-3.41l0.021,3.731l-0.025,4.607H35.35v-20.004h1.089V160.7z
	 M47.385,164.712c0-3.354-1.576-6.792-5.531-6.792c-3.925,0-5.389,3.295-5.389,6.792c0,3.523,1.234,6.733,5.389,6.733
	C45.667,171.445,47.385,168.353,47.385,164.712z"/>
<path fill="#FFFFFF" d="M52.262,160.585h0.084c0.544-1.946,2.98-3.438,5.646-3.351v1.088c-1.146-0.144-2.723,0.141-4.068,1.431
	c-1.062,1.147-1.578,2.036-1.663,4.244v8.052h-1.09v-14.73h1.09L52.262,160.585L52.262,160.585z"/>
<path fill="#FFFFFF" d="M65.212,156.973c4.356,0,6.762,3.529,6.762,7.711c0,4.211-2.406,7.71-6.762,7.71
	c-4.356,0-6.764-3.499-6.764-7.71C58.447,160.502,60.855,156.973,65.212,156.973z M65.212,171.445c3.668,0,5.673-3.236,5.673-6.762
	c0-3.524-2.005-6.764-5.673-6.764c-3.668,0-5.674,3.239-5.674,6.764C59.538,168.209,61.542,171.445,65.212,171.445z"/>
<path fill="#FFFFFF" d="M86.699,157.318v13.958c0,1.146,0,6.619-6.362,6.389c-3.125,0-5.616-1.176-5.76-4.584h1.089
	c0.23,2.607,2.293,3.638,4.701,3.638c5.157,0,5.244-4.213,5.244-5.187v-3.384h-0.056c-1.034,2.178-2.811,3.354-5.333,3.354
	c-4.326,0-6.361-3.18-6.361-7.279c0-3.897,2.235-7.252,6.361-7.252c2.323,0,4.501,1.235,5.333,3.413h0.056v-3.067L86.699,157.318
	L86.699,157.318z M74.947,164.225c0,3.471,1.807,6.335,5.274,6.335c3.584,0,5.359-3.01,5.359-6.335c0-3.324-1.776-6.303-5.359-6.303
	C76.668,157.922,74.947,161.102,74.947,164.225z"/>
<path fill="#FFFFFF" d="M90.991,160.585h0.084c0.545-1.946,2.982-3.438,5.646-3.351v1.088c-1.145-0.144-2.722,0.141-4.069,1.431
	c-1.059,1.147-1.575,2.036-1.661,4.244v8.052h-1.09v-14.73h1.09V160.585z"/>
<path fill="#FFFFFF" d="M108.726,169.327c0,0.832-0.027,1.774,0.975,1.774c0.201,0,0.458-0.028,0.803-0.084v0.918
	c-0.315,0.087-0.574,0.113-0.889,0.113c-1.72,0-1.976-0.947-1.976-2.148v-0.772h-0.059c-0.688,1.748-2.636,3.268-5.473,3.268
	c-2.779,0-4.93-1.062-4.93-4.158c0-3.465,2.98-4.124,5.418-4.355c4.87-0.314,5.071-0.688,5.071-3.067
	c0-0.658-0.745-2.893-4.098-2.893c-2.636,0-4.385,1.377-4.528,3.927h-1.088c0.143-3.237,2.148-4.875,5.617-4.875
	c2.58,0,5.157,0.774,5.157,3.841L108.726,169.327L108.726,169.327z M107.639,163.682c-0.832,1.002-3.21,0.83-5.332,1.146
	c-2.607,0.316-4.04,1.201-4.04,3.409c0,1.806,1.26,3.208,3.869,3.208c4.958,0,5.503-4.239,5.503-5.013V163.682z"/>
<path fill="#FFFFFF" d="M112.218,157.318h1.089v3.009h0.059c0.457-1.863,2.407-3.354,4.613-3.354c2.809,0,4.128,1.607,4.442,3.128
	h0.058c0.888-2.038,2.265-3.128,4.671-3.128c2.665,0,4.613,1.58,4.613,5.018v10.059h-1.087v-10.088c0-3.754-2.693-4.041-3.525-4.041
	c-2.666,0-4.614,1.862-4.614,5.418v8.711h-1.089v-10.088c0-3.696-2.551-4.041-3.468-4.041c-2.09,0-4.67,1.632-4.67,5.418v8.711
	h-1.088v-14.73H112.218z"/>
<path fill="#FFFFFF" d="M135.021,157.318h1.089v3.009h0.058c0.458-1.863,2.407-3.354,4.614-3.354c2.807,0,4.126,1.607,4.442,3.128
	h0.057c0.889-2.038,2.264-3.128,4.671-3.128c2.665,0,4.614,1.58,4.614,5.018v10.059h-1.089v-10.088c0-3.754-2.693-4.041-3.525-4.041
	c-2.666,0-4.615,1.862-4.615,5.418v8.711h-1.087v-10.088c0-3.696-2.551-4.041-3.468-4.041c-2.093,0-4.671,1.632-4.671,5.418v8.711
	h-1.089L135.021,157.318L135.021,157.318z"/>
<path fill="#FFFFFF" d="M168.655,169.327c0,0.832-0.027,1.774,0.973,1.774c0.201,0,0.46-0.028,0.805-0.084v0.918
	c-0.314,0.087-0.573,0.113-0.888,0.113c-1.721,0-1.978-0.947-1.978-2.148v-0.772h-0.059c-0.688,1.748-2.637,3.268-5.473,3.268
	c-2.78,0-4.929-1.062-4.929-4.158c0-3.465,2.981-4.124,5.416-4.355c4.872-0.314,5.073-0.688,5.073-3.067
	c0-0.658-0.744-2.893-4.1-2.893c-2.634,0-4.384,1.377-4.526,3.927h-1.088c0.143-3.237,2.148-4.875,5.614-4.875
	c2.58,0,5.16,0.774,5.16,3.841v8.513H168.655z M167.565,163.682c-0.829,1.002-3.21,0.83-5.331,1.146
	c-2.606,0.316-4.039,1.201-4.039,3.409c0,1.806,1.261,3.208,3.869,3.208c4.957,0,5.501-4.239,5.501-5.013V163.682z"/>
<path fill="#FFFFFF" d="M177.535,158.266h-3.211v10.285c0,2.353,1.118,2.64,3.183,2.551v0.947c-2.179,0.143-4.415-0.171-4.271-3.498
	v-10.285h-2.722v-0.947h2.722v-4.585h1.089v4.585h3.211V158.266z"/>
<path fill="#FFFFFF" d="M179.797,154.538l0.021-1.805h1.09l-0.022,1.805H179.797z M179.797,172.049v-14.73h1.088v14.73H179.797z"/>
<path fill="#FFFFFF" d="M195.44,161.877c-0.229-2.608-2.321-3.955-4.988-3.955c-3.666,0-5.675,3.266-5.675,6.619
	c0,3.98,1.862,6.904,5.675,6.904c2.751,0,4.76-1.915,5.129-4.583h1.09c-0.457,3.524-3.066,5.531-6.219,5.531
	c-4.786,0-6.763-3.727-6.763-7.853c0-4.127,2.407-7.568,6.763-7.568c3.182,0,5.762,1.58,6.076,4.904H195.44z"/>
<path fill="#FFFFFF" d="M213.255,156.973c4.357,0,6.765,3.529,6.765,7.711c0,4.211-2.408,7.71-6.765,7.71
	c-4.354,0-6.763-3.499-6.763-7.71C206.494,160.502,208.901,156.973,213.255,156.973z M213.255,171.445
	c3.668,0,5.675-3.236,5.675-6.762c0-3.524-2.007-6.764-5.675-6.764s-5.672,3.239-5.672,6.764
	C207.583,168.209,209.587,171.445,213.255,171.445z"/>
<path fill="#FFFFFF" d="M222.566,157.318h1.088v3.154h0.057c0.774-2.207,2.953-3.5,5.272-3.5c5.188,0,5.245,4.158,5.245,5.965v9.111
	h-1.089v-9.313c0-1.49-0.172-4.813-4.182-4.813c-3.324,0-5.304,2.582-5.304,6.162v7.966h-1.088V157.318L222.566,157.318z"/>
<path fill="#FFFFFF" d="M238.777,152.733v19.315h-1.088v-19.315H238.777z"/>
<path fill="#FFFFFF" d="M242.504,154.538v-1.805h1.088v1.805H242.504z M242.504,172.049v-14.73h1.088v14.73H242.504z"/>
<path fill="#FFFFFF" d="M247.059,157.318h1.086v3.154h0.058c0.775-2.207,2.952-3.5,5.274-3.5c5.188,0,5.241,4.158,5.241,5.965v9.111
	h-1.088v-9.313c0-1.49-0.171-4.813-4.182-4.813c-3.325,0-5.304,2.582-5.304,6.162v7.966h-1.086V157.318L247.059,157.318z"/>
<path fill="#FFFFFF" d="M262.354,164.826c-0.084,3.469,1.777,6.619,5.416,6.619c2.782,0,4.729-1.631,5.274-4.385h1.088
	c-0.572,3.47-2.836,5.333-6.362,5.333c-4.271,0-6.59-3.384-6.506-7.451c-0.084-4.042,2.064-7.971,6.506-7.971
	c4.585,0,6.706,3.611,6.476,7.854H262.354z M273.158,163.882c-0.086-3.095-2.033-5.96-5.388-5.96c-3.266,0-5.189,3.038-5.418,5.96
	H273.158z"/>
<path fill="#FFFFFF" d="M35.349,172.714h1.168v9.661h0.057c0.458-1.86,2.407-3.349,4.614-3.349c2.808,0,4.126,1.603,4.442,3.12
	h0.057c0.889-2.034,2.264-3.12,4.671-3.12c2.665,0,4.614,1.575,4.614,5.013v10.06h-1.089v-10.087c0-3.756-2.694-4.042-3.525-4.042
	c-2.666,0-4.614,1.862-4.614,5.417v8.712h-1.087v-10.087c0-3.699-2.552-4.042-3.468-4.042c-2.093,0-4.67,1.633-4.67,5.417v8.712
	H35.35L35.349,172.714L35.349,172.714z"/>
<path fill="#FFFFFF" d="M69.888,191.376c0,0.83-0.029,1.775,0.974,1.775c0.201,0,0.458-0.024,0.803-0.083v0.914
	c-0.316,0.087-0.572,0.116-0.889,0.116c-1.719,0-1.978-0.947-1.978-2.147v-0.775H68.74c-0.688,1.746-2.636,3.268-5.473,3.268
	c-2.78,0-4.929-1.06-4.929-4.155c0-3.468,2.98-4.127,5.417-4.356c4.871-0.316,5.073-0.687,5.073-3.066
	c0-0.659-0.745-2.895-4.099-2.895c-2.637,0-4.386,1.375-4.528,3.926h-1.088c0.143-3.238,2.148-4.869,5.616-4.869
	c2.58,0,5.159,0.771,5.159,3.838V191.376z M68.798,185.73c-0.831,1.001-3.209,0.832-5.331,1.146
	c-2.607,0.314-4.042,1.205-4.042,3.41c0,1.806,1.262,3.212,3.87,3.212c4.959,0,5.502-4.246,5.502-5.018V185.73z"/>
<path fill="#FFFFFF" d="M75.012,182.637h0.085c0.545-1.95,2.981-3.441,5.646-3.354v1.088c-1.146-0.142-2.723,0.144-4.068,1.432
	c-1.062,1.148-1.578,2.036-1.663,4.241v8.055h-1.088V179.37h1.088V182.637z"/>
<path fill="#FFFFFF" d="M82.516,173.081h1.09v14.11l9.083-7.821h1.576l-6.448,5.501l6.906,9.229h-1.489l-6.277-8.397l-3.352,2.836
	v5.562h-1.09V173.081z"/>
<path fill="#FFFFFF" d="M96.724,186.877c-0.084,3.466,1.777,6.622,5.417,6.622c2.78,0,4.729-1.637,5.274-4.386h1.088
	c-0.572,3.466-2.836,5.329-6.362,5.329c-4.271,0-6.591-3.383-6.505-7.449c-0.086-4.042,2.063-7.967,6.505-7.967
	c4.585,0,6.707,3.61,6.477,7.851H96.724z M107.529,185.931c-0.085-3.095-2.034-5.961-5.388-5.961c-3.268,0-5.188,3.039-5.417,5.961
	H107.529z"/>
<path fill="#FFFFFF" d="M117.15,180.313h-3.209v10.288c0,2.351,1.118,2.637,3.182,2.551v0.947c-2.178,0.143-4.413-0.172-4.271-3.498
	v-10.288h-2.723v-0.944h2.723v-4.585h1.089v4.585h3.209V180.313z"/>
<path fill="#FFFFFF" d="M119.986,176.588v-1.805h1.087v1.805H119.986z M119.986,194.099V179.37h1.087v14.729H119.986z"/>
<path fill="#FFFFFF" d="M125.113,179.37h1.088v3.151h0.058c0.774-2.207,2.951-3.494,5.273-3.494c5.188,0,5.245,4.152,5.245,5.958
	v9.114h-1.088v-9.313c0-1.49-0.172-4.815-4.185-4.815c-3.324,0-5.302,2.579-5.302,6.162v7.967h-1.089L125.113,179.37L125.113,179.37
	z"/>
<path fill="#FFFFFF" d="M152.734,179.37v13.955c0,1.146,0,6.621-6.362,6.39c-3.124,0-5.616-1.172-5.759-4.585h1.088
	c0.229,2.608,2.294,3.641,4.7,3.641c5.16,0,5.245-4.212,5.245-5.189v-3.382h-0.057c-1.033,2.18-2.809,3.354-5.332,3.354
	c-4.328,0-6.364-3.184-6.364-7.279c0-3.9,2.237-7.248,6.364-7.248c2.321,0,4.5,1.229,5.332,3.407h0.057v-3.065h1.089V179.37z
	 M140.984,186.274c0,3.469,1.806,6.333,5.274,6.333c3.582,0,5.36-3.011,5.36-6.333c0-3.323-1.778-6.305-5.36-6.305
	C142.704,179.97,140.984,183.15,140.984,186.274z"/>
<path fill="#FFFFFF" d="M167.213,189.198c0.144,2.724,2.238,4.301,4.875,4.301c1.919,0,4.672-0.577,4.672-3.128
	c0-4.984-10.117-1.544-10.117-7.564c0-2.895,2.838-3.78,5.333-3.78c3.093,0,5.442,1.345,5.442,4.697h-1.089
	c0-2.665-1.895-3.754-4.354-3.754c-1.98,0-4.245,0.745-4.245,2.837c0,2.382,2.523,2.695,4.899,3.237
	c2.923,0.546,5.219,1.264,5.219,4.327c0,3.184-3.184,4.071-5.761,4.071c-3.354,0-5.876-1.806-5.96-5.244H167.213z"/>
<path fill="#FFFFFF" d="M187.124,179.026c4.357,0,6.764,3.522,6.764,7.705c0,4.214-2.408,7.71-6.764,7.71
	c-4.354,0-6.762-3.497-6.762-7.71C180.362,182.549,182.771,179.026,187.124,179.026z M187.124,193.499
	c3.669,0,5.678-3.239,5.678-6.768c0-3.522-2.009-6.762-5.678-6.762c-3.665,0-5.673,3.237-5.673,6.762
	C181.451,190.26,183.458,193.499,187.124,193.499z"/>
<path fill="#FFFFFF" d="M198.354,174.783v19.315h-1.09v-19.315H198.354z"/>
<path fill="#FFFFFF" d="M214.058,194.099h-1.09v-3.153h-0.059c-0.773,2.206-2.95,3.497-5.272,3.497
	c-5.184,0-5.243-4.155-5.243-5.961v-9.113h1.09v9.313c0,1.491,0.172,4.816,4.181,4.816c3.326,0,5.304-2.58,5.304-6.165v-7.965h1.09
	V194.099z"/>
<path fill="#FFFFFF" d="M223.251,180.313h-3.212v10.288c0,2.351,1.116,2.637,3.184,2.551v0.947
	c-2.182,0.143-4.414-0.172-4.272-3.498v-10.288h-2.724v-0.944h2.724v-4.585h1.089v4.585h3.212V180.313z"/>
<path fill="#FFFFFF" d="M226.085,176.588v-1.805h1.09v1.805H226.085z M226.085,194.099V179.37h1.09v14.729H226.085z"/>
<path fill="#FFFFFF" d="M237.285,179.026c4.356,0,6.764,3.522,6.764,7.705c0,4.214-2.408,7.71-6.764,7.71
	c-4.354,0-6.762-3.497-6.762-7.71C230.523,182.549,232.931,179.026,237.285,179.026z M237.285,193.499
	c3.669,0,5.678-3.239,5.678-6.768c0-3.522-2.009-6.762-5.678-6.762c-3.665,0-5.672,3.237-5.672,6.762
	C231.613,190.26,233.62,193.499,237.285,193.499z"/>
<path fill="#FFFFFF" d="M247.168,179.37h1.088v3.151h0.056c0.774-2.207,2.952-3.494,5.273-3.494c5.188,0,5.241,4.152,5.241,5.958
	v9.114h-1.086v-9.313c0-1.49-0.172-4.815-4.184-4.815c-3.325,0-5.3,2.579-5.3,6.162v7.967h-1.089V179.37L247.168,179.37z"/>
<path fill="#FFFFFF" d="M263.124,189.198c0.143,2.724,2.236,4.301,4.874,4.301c1.919,0,4.672-0.577,4.672-3.128
	c0-4.984-10.117-1.544-10.117-7.564c0-2.895,2.838-3.78,5.326-3.78c3.099,0,5.447,1.345,5.447,4.697h-1.09
	c0-2.665-1.891-3.754-4.357-3.754c-1.977,0-4.239,0.745-4.239,2.837c0,2.382,2.524,2.695,4.899,3.237
	c2.924,0.546,5.217,1.264,5.217,4.327c0,3.184-3.183,4.071-5.758,4.071c-3.354,0-5.875-1.806-5.963-5.244H263.124z"/>
</svg>
