<?xml version="1.0" encoding="utf-8"?>
<!-- Generator: Adobe Illustrator 22.0.1, SVG Export Plug-In . SVG Version: 6.00 Build 0)  -->
<svg version="1.1"
	 id="svg10" inkscape:version="1.0 (4035a4fb49, 2020-05-01)" sodipodi:docname="logo_background.svg" xmlns:cc="http://creativecommons.org/ns#" xmlns:dc="http://purl.org/dc/elements/1.1/" xmlns:inkscape="http://www.inkscape.org/namespaces/inkscape" xmlns:rdf="http://www.w3.org/1999/02/22-rdf-syntax-ns#" xmlns:sodipodi="http://sodipodi.sourceforge.net/DTD/sodipodi-0.dtd" xmlns:svg="http://www.w3.org/2000/svg"
	 xmlns="http://www.w3.org/2000/svg" xmlns:xlink="http://www.w3.org/1999/xlink" x="0px" y="0px" viewBox="0 0 1140 96"
	 style="enable-background:new 0 0 1140 96;" xml:space="preserve">
<style type="text/css">
	.st0{fill:#E2007A;}
	.st1{fill:#FFFFFF;}
</style>
<sodipodi:namedview  bordercolor="#666666" borderopacity="1" gridtolerance="10" guidetolerance="10" id="namedview12" inkscape:current-layer="g18" inkscape:cx="304" inkscape:cy="48" inkscape:pageopacity="0" inkscape:pageshadow="2" inkscape:window-height="2066" inkscape:window-maximized="1" inkscape:window-width="3840" inkscape:window-x="-11" inkscape:window-y="-11" inkscape:zoom="5.9884868" objecttolerance="10" pagecolor="#ffffff" showgrid="false">
	</sodipodi:namedview>
<path class="st0" d="M1092,96H48C21.6,96,0,74.4,0,48l0,0C0,21.6,21.6,0,48,0l1044,0c26.4,0,48,21.6,48,48v0
	C1140,74.4,1118.4,96,1092,96z"/>
<g id="layer1" transform="translate(-449.88641,-505.46578)">
	
		<path id="path108" inkscape:connector-curvature="0" sodipodi:nodetypes="cccccccccccccccsccccccccscccccccccccsccccc" class="st1" d="
		M1090.8,550h17.7v17.7h-17.7V550z M1037.8,550h17.7v17.7h-17.7V550z M984.8,550h17.7v17.7h-17.7V550z M973.5,578.4
		c0,5.6,0.8,9.2,2.5,10.9c1.4,1.4,3.8,2.3,7.1,2.6c1,0.1,2.7,0.1,5,0.1v4.9h-42.6V592c3.4,0,5.9-0.2,7.6-0.5
		c3.3-0.7,5.4-2.6,6.2-5.8c0.4-1.6,0.7-4.1,0.7-7.4v-64.2c-7.2,0.2-12.9,2.6-16.9,7.2c-3.9,4.4-6.2,11.1-7.1,20.1l-4.6-0.8l0.9-30.7
		h69.2l0.9,30.7l-4.6,0.8c-0.9-9-3.2-15.8-7.1-20.1c-4.1-4.6-9.8-7-17-7.2V578.4L973.5,578.4z M931.5,550h17.7v17.7h-17.7V550z"/>
</g>
</svg>
