<svg width="608" height="96" xmlns="http://www.w3.org/2000/svg">
 <style type="text/css">.st0{fill:#E2007A;}
	.st1{fill:#FFFFFF;}</style>

 <g>
  <title>background</title>
  <rect fill="none" id="canvas_background" height="402" width="582" y="-1" x="-1"/>
 </g>
 <g>
  <title>Layer 1</title>
  <g id="layer1">
   <path d="m380.313586,44.53421l17.7,0l0,17.7l-17.7,0l0,-17.7zm-53,0l17.7,0l0,17.7l-17.7,0l0,-17.7zm-53,0l17.7,0l0,17.7l-17.7,0l0,-17.7zm-11.2,28.4c0,5.6 0.8,9.2 2.5,10.9c1.4,1.4 3.8,2.3 7.1,2.6c1,0.1 2.7,0.1 5,0.1l0,4.9l-42.6,0l0,-4.9c3.4,0 5.9,-0.2 7.6,-0.5c3.3,-0.7 5.4,-2.6 6.2,-5.8c0.4,-1.6 0.7,-4.1 0.7,-7.4l0,-64.2c-7.2,0.2 -12.9,2.6 -16.9,7.2c-3.9,4.4 -6.2,11.1 -7.1,20.1l-4.6,-0.8l0.9,-30.7l69.2,0l0.9,30.7l-4.6,0.8c-0.9,-9 -3.2,-15.8 -7.1,-20.1c-4.1,-4.6 -9.8,-7 -17,-7.2l0,64.3l-0.2,0zm-42.1,-28.4l17.7,0l0,17.7l-17.7,0l0,-17.7z" class="st1" id="path108"/>
  </g>
 </g>
</svg>