<svg width="608" height="96" xmlns="http://www.w3.org/2000/svg">

 <g>
  <title>background</title>
  <rect fill="none" id="canvas_background" height="98" width="610" y="-1" x="-1"/>
 </g>
 <g>
  <title>Layer 1</title>
  <path id="svg_1" d="m368.300003,59.650002c-0.1,0 -0.1,0.1 -0.2,0.2c-2.2,4.7 -4.2,5.5 -5.1,5.5c-0.7,0 -1.1,-0.4 -1.1,-1.6c0,-1.4 0.6,-3.3 1.1,-5c0.7,-2.5 1.1,-3.8 1.1,-4.9c0,-1.4 -1.1,-2.5 -2.7,-2.5c-2.5,0 -4.4,2 -6.5,5.2c-0.1,0.1 -0.2,0.2 -0.2,0.2c0,0 -0.1,0 -0.1,-0.1c0,-0.1 0.1,-0.3 0.1,-0.4c0.4,-1.7 0.9,-3.3 1.3,-4.8c5.8,-4.9 12.5,-11.3 12.5,-16.7c0,-1.8 -0.9,-3.3 -2.9,-3.3c-4.4,0 -9.2,6.2 -13.2,21.5c-1.3,1 -2.6,1.9 -3.8,2.7c-0.3,0.2 -0.6,0.4 -0.9,0.6c0,-0.1 0,-0.2 0,-0.3c0,-2.2 -0.7,-4.6 -3.3,-4.6c-2.2,0 -4.5,1.6 -6.4,5.2c0,0.1 -0.1,0.1 -0.2,0.1c0,0 -0.1,0 -0.1,-0.1c0,0 0,-0.1 0,-0.2c0.2,-0.7 0.7,-2.4 0.7,-3.1c0,-1.1 -1.9,-2.1 -2.2,-2.1c-0.2,0 -0.2,0.1 -0.3,0.3c-0.4,1.5 -0.5,2.2 -0.9,3.4c-1.8,5.5 -4.5,10.2 -6.2,10.2c-0.5,0 -0.8,-0.5 -0.8,-1.3c0,-2.4 2.2,-7.9 2.2,-10c0,-1.4 -0.8,-2.6 -2.8,-2.6c-1.8,0 -4.1,1.6 -6.2,5.1c-0.1,0.1 -0.1,0.3 -0.2,0.3c0,0 -0.1,0 -0.1,-0.1c0,-0.1 0,-0.2 0.1,-0.2c0.1,-0.6 0.3,-1.4 0.3,-2.3c0,-1.3 -0.6,-2.7 -2.4,-2.7c-1.8,0 -4.1,1.5 -6.2,5c-0.1,0.1 -0.2,0.3 -0.3,0.3c0,0 -0.1,0 -0.1,-0.1c0,-0.1 0,-0.2 0,-0.3c0.2,-0.8 0.7,-2.3 0.7,-3c0,-1.1 -1.9,-2.1 -2.2,-2.1c-0.2,0 -0.2,0.1 -0.3,0.3c-1.1,5.1 -3.2,13.5 -3.2,13.9c0,0.8 2.1,1.5 2.5,1.5c0.3,0 0.3,-0.1 0.4,-0.4c0.8,-2.9 1.8,-6.7 3.2,-9.2c1.3,-2.3 2.7,-3.9 4.1,-3.9c0.5,0 0.8,0.4 0.8,1c0,0.7 -0.4,2.2 -0.6,3.2c-0.9,3.9 -1.8,7.6 -1.8,7.8c0,0.8 2.1,1.5 2.5,1.5c0.3,0 0.3,-0.1 0.4,-0.4c0.8,-2.9 1.8,-6.7 3.2,-9.2c1.3,-2.3 2.7,-3.9 4,-3.9c0.4,0 0.8,0.2 0.8,0.9c0,2 -2,6.3 -2,9.5c0,1.8 0.9,3.1 2.7,3.1c2.4,0 4.3,-2.3 6.1,-6c0,0 0,-0.1 0.1,-0.1c0,0 0,0 0,0.1c0,0 0,0 0,0.1c-0.5,2.8 -4.3,18.8 -4.3,19c0,0.8 2.1,1.5 2.5,1.5c0.3,0 0.3,-0.1 0.4,-0.4c3.1,-12.1 4.2,-18.7 6.4,-23c1.5,-2.9 2.7,-4.5 4.2,-4.5c0.9,0 1.6,0.8 1.6,2.4c0,0.9 -0.1,1.9 -0.3,2.8c-1.3,0.8 -2.5,1.6 -3.5,2.3c-1.9,1.4 -3.3,2.8 -3.3,4.3c0,1.2 1,1.9 2.1,1.9c4.3,0 7.7,-4.6 8.3,-9.4c1.5,-0.9 3,-1.9 4.4,-2.9c-0.1,0.3 -0.2,0.6 -0.2,0.9c-1.4,5.8 -2.3,9.6 -2.3,9.9c0,0.8 2.1,1.5 2.5,1.5c0.3,0 0.3,-0.1 0.4,-0.4c0.8,-2.9 1.8,-6.4 3.1,-8.7c1.3,-2.3 2.9,-4.4 4.4,-4.4c0.6,0 0.9,0.2 0.9,0.9c0,0.9 -0.4,2.2 -1,4.3c-0.6,1.9 -1,3.7 -1,5.1c0,1.9 1.1,3.3 3,3.3c4,0 7.2,-5 7.2,-6.7c-0.4,-0.5 -0.8,-0.9 -0.9,-0.9zm-2.7,-27.1c0.7,0 1.1,0.6 1.1,1.6c0,4.6 -4.6,10.5 -10.2,15.5c3.4,-10.8 6.9,-17.1 9.1,-17.1zm-26.4,33.2c-0.5,0 -0.7,-0.3 -0.7,-0.8c0,-1.4 2.2,-3 5.1,-4.9c-1,3.2 -2.9,5.7 -4.4,5.7zm-52.3,-14.2c0,-0.1 0.1,-0.2 0.3,-0.2c0.4,0 2.4,1.1 2.4,1.9c0,0.4 -0.1,0.8 -0.4,1.6c-0.8,2.5 -2.1,7.2 -2.1,9.2c0,0.7 0.2,1.2 0.8,1.2c0.9,0 1.9,-1.3 2.5,-2.2c0.1,-0.1 0.1,-0.1 0.2,-0.1c0.2,0 0.5,0.3 0.5,0.7c0,0.7 -2,3.5 -4.2,3.5c-2,0 -2.9,-1.2 -2.9,-3.4c-0.1,-2.5 2.3,-10.4 2.9,-12.2m14.4,5.6c-1.3,3.8 -3.9,8.1 -5.4,8.1c-0.6,0 -0.9,-0.5 -0.9,-1.5c0,-2.4 1.2,-6.4 2,-8.8c0.2,-0.8 0.4,-1.2 0.4,-1.6c0,-0.8 -2,-1.9 -2.4,-1.9c-0.2,0 -0.2,0.1 -0.3,0.2c-0.6,1.8 -2.8,8.7 -2.8,11.7c0,2.3 0.9,3.8 2.7,3.8c2.2,0 4.3,-2.2 5.5,-4.6c0,-0.1 0,-0.1 0.1,-0.1c0,0 0,0 0,0.1c0,0.1 -0.1,0.7 -0.1,1.2c0,2.2 0.9,3.4 2.9,3.4c2.2,0 4.2,-2.8 4.2,-3.5c0,-0.3 -0.3,-0.7 -0.5,-0.7c-0.1,0 -0.1,0 -0.2,0.1c-0.6,0.9 -1.7,2.2 -2.5,2.2c-0.5,0 -0.8,-0.5 -0.8,-1.2c0,-2 1.3,-6.7 2.1,-9.2c0.3,-0.8 0.4,-1.2 0.4,-1.6c0,-0.8 -2,-1.9 -2.4,-1.9c-0.2,0 -0.2,0.1 -0.3,0.2c-0.3,0.9 -1.2,4 -1.7,5.6m-11.2,-8.8c1,0 1.7,-0.8 1.7,-1.7c0,-1 -0.8,-1.7 -1.7,-1.7c-1,0 -1.7,0.8 -1.7,1.7c0,0.9 0.7,1.7 1.7,1.7m8.3,-12.2c-8,0 -18,2.5 -27.6,5.1c-0.8,-4.9 -4.7,-8.4 -12.2,-8.4c-10.2,-0.1 -19.8,5.8 -19.8,10.9c0,3.4 4,4.8 8.6,4.8c5,0 12.2,-1.8 20.3,-3.9c-1.3,7.4 -4.7,20.5 -4.7,21c0,0.7 2.5,1.5 3,1.5c0.2,0 0.3,0 0.3,-0.3c1.1,-4.9 4.4,-17.4 4.7,-23.1c10.5,-2.7 21.9,-5.7 31.1,-5.7c6.8,0 7.8,2.4 7.8,3.6c0,0.9 -0.7,1.1 -0.7,1.4c0,0.2 0.2,0.3 0.4,0.3c0.9,0 2.8,-0.8 2.8,-2.2c-0.1,-2 -3.4,-5 -14,-5zm-30.3,5.8c-9,2.4 -17.4,4.7 -23,4.7c-3.2,0 -5,-1.1 -5,-2.8c0,-4.4 11.5,-9.8 19.4,-9.8c6.3,0 8.7,2.5 8.7,6.6c-0.1,0.4 -0.1,0.8 -0.1,1.3zm2.9,23.6c0,0.8 2.1,1.5 2.5,1.5c0.3,0 0.3,-0.1 0.4,-0.4c0.8,-2.9 1.6,-6.6 3,-8.9c1.6,-2.8 3,-3.8 4.2,-3.8c0.9,0 1.2,0.6 1.2,1.4c0,0.6 -0.1,0.9 -0.1,1.1c0,0.2 0.1,0.2 0.3,0.2c0.7,0 2,-2.1 2,-3.7c0,-1.1 -0.8,-1.7 -1.9,-1.7c-1.8,0 -4.2,1.7 -6.2,5.3c0,0.1 -0.1,0.1 -0.2,0.1c-0.1,0 -0.1,0 -0.1,-0.1c0,-0.1 0,-0.2 0,-0.2c0.2,-0.8 0.7,-2.3 0.7,-3c0,-1.1 -1.9,-2.1 -2.2,-2.1c-0.2,0 -0.2,0.1 -0.3,0.3c-1.2,5.2 -3.3,13.6 -3.3,14m66.4,-27.9l4.1,2.6l5.5,-11.4l-8.7,9.2l-0.1,0l0.6,-18l-5,17.5l0,0l-5,-17.5l0.6,18l-0.1,0l-8.7,-9.2l5.5,11.4l4.1,-2.6l7.2,0zm-0.2,4.1l2.5,1.6l1.2,-0.8l0.4,-1.5l-4.1,-2.6l-3.4,0l-3.4,0l-4.1,2.6l0.4,1.5l1.2,0.8l2.5,-1.6l3.4,0l3.4,0zm-17.8,-15.2l0.7,-0.8l-0.3,-1l-1,-0.2l-0.7,0.8l0.3,1l1,0.2zm8.6,-9.9l0.8,-0.8l-0.3,-1l-1,-0.2l-0.7,0.8l0.3,1l0.9,0.2zm21.2,9.6l0.3,-1l-0.7,-0.8l-1,0.2l-0.3,1l0.7,0.8l1,-0.2zm-8.6,-9.8l0.3,-1l-0.7,-0.8l-1,0.2l-0.3,1l0.7,0.8l1,-0.2z" fill="#B2152C"/>
 </g>
</svg>